<svg xmlns="http://www.w3.org/2000/svg" xmlns:xlink="http://www.w3.org/1999/xlink" viewBox="0 0 205.62 55.45"><defs><style>.cls-1{font-size:48px;font-family:MVBoli, MV Boli;}.cls-2{fill:url(#linear-gradient);}</style><linearGradient id="linear-gradient" x1="5.41" y1="23.37" x2="205.62" y2="23.37" gradientUnits="userSpaceOnUse"><stop offset="0" stop-color="#6c63ff"/><stop offset="0.01" stop-color="#6c63ff"/><stop offset="0.28" stop-color="#6c63ff"/><stop offset="0.67" stop-color="#58595b"/><stop offset="0.89" stop-color="#a7a9ac"/><stop offset="1" stop-color="#bcbec0"/></linearGradient></defs><title>Asset 2</title><g id="Layer_2" data-name="Layer 2"><g id="Layer_1-2" data-name="Layer 1"><text class="cls-1" transform="translate(0 41.16)">RazStore</text><path class="cls-2" d="M5.58,38.2q1.33-5.36,2.76-10.6T11.11,17c.11-.47.22-.91.33-1.33s.21-.85.3-1.27A11,11,0,0,0,12,13.11a9.73,9.73,0,0,0,.09-1.34,7.43,7.43,0,0,0-.07-1,6.16,6.16,0,0,1-.07-1,4.67,4.67,0,0,1,.14-1.14,4.8,4.8,0,0,1,1-2.14,2.54,2.54,0,0,1,2-.7,5,5,0,0,1,1,.1c.34.07.67.16,1,.25s.73.2,1.11.28a5.71,5.71,0,0,0,1.16.12,9.12,9.12,0,0,0,.92,0l1-.09,1.36-.1c.52,0,1.18,0,2,0,.43,0,.95,0,1.54,0A17.86,17.86,0,0,1,28,6.52,14.21,14.21,0,0,1,29.93,7a7.91,7.91,0,0,1,1.84.85,6.36,6.36,0,0,1,1.51,1.33,5.2,5.2,0,0,1,1,1.88,6.19,6.19,0,0,1,.22,1,6.33,6.33,0,0,1,.06.86,6.08,6.08,0,0,1-.73,2.82,12.06,12.06,0,0,1-2.21,2.94,21.74,21.74,0,0,1-3.25,2.59c-.48.33-1.05.67-1.69,1l-1.88,1-1.67.87a10.65,10.65,0,0,0-1,.61c.55.27,1.1.55,1.64.84a13,13,0,0,1,1.68,1,13.26,13.26,0,0,1,1.73,1.48A17.85,17.85,0,0,1,29,30.25a32.29,32.29,0,0,1,2,3c.68,1.14,1.39,2.49,2.12,4a2.64,2.64,0,0,1,.28,1.2,2.46,2.46,0,0,1-.2,1,3,3,0,0,1-.54.89,2.58,2.58,0,0,1-.81.65,2.14,2.14,0,0,1-1,.24,1.72,1.72,0,0,1-1.36-.61,6.83,6.83,0,0,1-1-1.59c-.33-.66-.67-1.4-1-2.23a20,20,0,0,0-1.3-2.5,22.93,22.93,0,0,0-1.87-2.58,13.89,13.89,0,0,0-2.17-2.11,10.58,10.58,0,0,0-2.36-1.42,6.14,6.14,0,0,0-2.44-.53H16.9a6.28,6.28,0,0,0-1.3.13c-.39.09-.76.16-1.12.22a1.86,1.86,0,0,1-1.05-.84,2.63,2.63,0,0,1-.33-1.31V25.5l-1.87,7.38c-.07.24-.15.56-.26,1s-.24.86-.38,1.34-.28,1-.43,1.52l-.42,1.5c-.13.47-.25.89-.35,1.27l-.23.84a2.58,2.58,0,0,1-.83.93,2,2,0,0,1-1.09.34A1.58,1.58,0,0,1,5.81,41a2.69,2.69,0,0,1-.4-1.44,5,5,0,0,1,0-.67A6.25,6.25,0,0,1,5.58,38.2ZM17.09,11.77c-.1.31-.23.76-.41,1.36s-.38,1.26-.6,2-.45,1.56-.7,2.41l-.75,2.59c-.25.87-.5,1.71-.73,2.52s-.45,1.54-.63,2.18a4.16,4.16,0,0,1,1.4-1.09,18.33,18.33,0,0,1,2.11-.9c.61-.22,1.36-.53,2.25-.92s1.83-.86,2.8-1.38,2-1.07,2.93-1.67A24.68,24.68,0,0,0,27.39,17a12,12,0,0,0,1.88-1.9A3,3,0,0,0,30,13.29a1.66,1.66,0,0,0-.61-1.37,4,4,0,0,0-1.52-.76,9.36,9.36,0,0,0-2-.34c-.72-.06-1.4-.09-2-.09a25.58,25.58,0,0,0-3.38.22A15.33,15.33,0,0,0,17.09,11.77Z"/><path class="cls-2" d="M49.45,40.15a9.81,9.81,0,0,1,.17-1.63,14.16,14.16,0,0,0,.16-2.36c-.51.38-1.08.82-1.71,1.34s-1.27,1-1.94,1.48a14.58,14.58,0,0,1-2,1.18,4.28,4.28,0,0,1-1.86.48,4.23,4.23,0,0,1-1.34-.21,3.67,3.67,0,0,1-1.08-.56,7.24,7.24,0,0,1-1.79-2,4.61,4.61,0,0,1-.55-2.3,7.47,7.47,0,0,1,.11-1.22c.07-.42.17-.9.31-1.45A20.75,20.75,0,0,1,41,26.07a21,21,0,0,1,5.38-5.37,6.73,6.73,0,0,1,2.48-1.12,13,13,0,0,1,2.46-.24,10.79,10.79,0,0,1,1.21.07c.45,0,.85.09,1.21.14s.65-.14.88-.17a5.33,5.33,0,0,1,.71,0,3.27,3.27,0,0,1,1.17.18,1.91,1.91,0,0,1,.75.51,1.85,1.85,0,0,1,.41.72,2.76,2.76,0,0,1,.13.86,3.71,3.71,0,0,1-.18,1.16l-.38,1.11L54.12,36.23c-.07.68-.12,1.29-.17,1.86a7.67,7.67,0,0,1-.28,1.57l-.17.52a2.06,2.06,0,0,1-.34.61,2.24,2.24,0,0,1-.59.51,1.75,1.75,0,0,1-.91.21,5.13,5.13,0,0,1-1.16-.1,1.61,1.61,0,0,1-.67-.27.75.75,0,0,1-.31-.42A2.34,2.34,0,0,1,49.45,40.15Zm-7.78-7.08c-.06.22-.13.53-.2.94a7.09,7.09,0,0,0-.1,1.22,3.31,3.31,0,0,0,.18,1.13.79.79,0,0,0,.83.51,4,4,0,0,0,1.83-.44,8.52,8.52,0,0,0,1.61-1c.67-.55,1.36-1.16,2-1.84a26.56,26.56,0,0,0,2-2.14,19.51,19.51,0,0,0,1.64-2.31,9.51,9.51,0,0,0,1-2.36,12.34,12.34,0,0,0,.32-1.57A10.59,10.59,0,0,0,53,23.58a1.46,1.46,0,0,0-.14-.6.56.56,0,0,0-.54-.29,6.52,6.52,0,0,0-2.31.44,10.8,10.8,0,0,0-2.24,1.2,13.47,13.47,0,0,0-2.05,1.77,16.86,16.86,0,0,0-1.77,2.18,16.35,16.35,0,0,0-1.37,2.39A15,15,0,0,0,41.67,33.07Z"/><path class="cls-2" d="M59.41,38.74a3.35,3.35,0,0,1,.54-1,11.89,11.89,0,0,1,.88-1,11.13,11.13,0,0,1,1-.89l.81-.66c.75-.7,1.63-1.52,2.63-2.47s2-1.93,3-2.94,2-2,3-3S73,24.79,73.64,24L72,24,70,24.07l-1.82.05-1.26,0A3.48,3.48,0,0,1,66,24a1.88,1.88,0,0,1-.76-.38,2.11,2.11,0,0,1-.53-.68,2.35,2.35,0,0,1-.2-1,1.8,1.8,0,0,1,.36-1.08,1.32,1.32,0,0,1,.89-.58l.8.07.88,0a26.05,26.05,0,0,0,3-.18c1-.11,2.09-.24,3.13-.38l3-.39a22.11,22.11,0,0,1,2.67-.17,3,3,0,0,1,.79.08,1.52,1.52,0,0,1,.56.26,2.16,2.16,0,0,1,.46.45c.14.19.29.42.47.71a1.31,1.31,0,0,1,.14.31,2.29,2.29,0,0,1,0,.25,2.19,2.19,0,0,1-.23,1,4.23,4.23,0,0,1-.68.93,2.06,2.06,0,0,0-.75.39c-.33.22-.71.5-1.13.84s-.86.71-1.32,1.13l-1.35,1.21c-.44.4-.84.77-1.2,1.12l-.86.82-.24.21-1.06,1c-.48.46-1,1-1.61,1.58l-1.86,1.89-1.88,1.92-1.64,1.69c-.49.5-.87.91-1.14,1.2a1.22,1.22,0,0,0,.33.06h.4a9.34,9.34,0,0,0,1.65-.16c.62-.11,1.23-.2,1.84-.28L75.3,37a4.77,4.77,0,0,1,1-.38l1.23-.33.7-.16a6.59,6.59,0,0,0,.86-.25l.59-.23.48-.16a2.09,2.09,0,0,1,.53-.06,1.74,1.74,0,0,1,.81.17,1.36,1.36,0,0,1,.5.48,3,3,0,0,1,.31.72c.08.27.16.57.23.88a3.53,3.53,0,0,1-.29.78,2.6,2.6,0,0,1-.48.68,2.48,2.48,0,0,1-.61.48A1.19,1.19,0,0,1,80,39.7l-1.18.23-2.11.39-3.26.59-4.63.79-1,.12L66.38,42l-1.47.14c-.46,0-.78.06-.95.06A7.62,7.62,0,0,1,62.43,42a6,6,0,0,1-1.5-.51,3.56,3.56,0,0,1-1.14-.9,2,2,0,0,1-.45-1.31A3.4,3.4,0,0,1,59.41,38.74Z"/><path class="cls-2" d="M85.88,35.74q.8.28,1.62.66c.56.25,1.13.49,1.73.71a15,15,0,0,0,1.86.58,9.18,9.18,0,0,0,2.07.23,11.75,11.75,0,0,0,2.61-.3,12.82,12.82,0,0,0,2.56-.91,13.45,13.45,0,0,0,2.4-1.45,12.71,12.71,0,0,0,2.11-2c.71-.8,1.29-1.52,1.76-2.17a19.42,19.42,0,0,0,1.14-1.73,8.62,8.62,0,0,0,.62-1.31,3.24,3.24,0,0,0,.19-.95,1.49,1.49,0,0,0-.4-1,3,3,0,0,0-1.07-.72,6.91,6.91,0,0,0-1.51-.41,12.45,12.45,0,0,0-1.76-.13c-.36,0-.78,0-1.26,0L99.07,25,97.62,25,96.4,25a8.32,8.32,0,0,1-1.61-.17,6.92,6.92,0,0,1-1.63-.58,5.61,5.61,0,0,1-2.6-2.76,6.46,6.46,0,0,1-.26-.78,4.08,4.08,0,0,1-.11-1,6.19,6.19,0,0,1,.08-1.07,9.79,9.79,0,0,1,.2-1,9.12,9.12,0,0,1,1.09-2.38A16.24,16.24,0,0,1,93.39,13a27.38,27.38,0,0,1,2.32-2.23c.83-.72,1.69-1.39,2.58-2S100,7.55,100.89,7s1.64-.94,2.38-1.3a13.86,13.86,0,0,1,3.15-1.09,15.76,15.76,0,0,1,3.17-.34,6.2,6.2,0,0,1,1.79.25,4.72,4.72,0,0,1,1.48.71,3.54,3.54,0,0,1,1,1.16A3.28,3.28,0,0,1,114.26,8a2.66,2.66,0,0,1-.12.86,1.85,1.85,0,0,1-.3.58,1.14,1.14,0,0,1-.41.31,1.06,1.06,0,0,1-.46.1,4.67,4.67,0,0,1-1.16-.14c-.35-.1-.69-.2-1-.32l-1-.33a3.59,3.59,0,0,0-1.07-.15,9.75,9.75,0,0,0-3.53.69,20,20,0,0,0-3.49,1.76,24.24,24.24,0,0,0-3.21,2.38c-1,.87-1.91,1.72-2.71,2.55a4.85,4.85,0,0,0-.93,1.32,3.1,3.1,0,0,0-.29,1.24,1.54,1.54,0,0,0,.75,1.36,3.33,3.33,0,0,0,1.83.49l1.43,0,1.63-.06,1.61-.07c.53,0,1,0,1.4,0a9.56,9.56,0,0,1,2.79.41,7.38,7.38,0,0,1,2.37,1.21,6.12,6.12,0,0,1,1.65,2,5.79,5.79,0,0,1,.62,2.71,7,7,0,0,1-.28,1.89,11.24,11.24,0,0,1-.78,1.94,17.09,17.09,0,0,1-1.12,1.92c-.42.63-.87,1.25-1.34,1.86a24.91,24.91,0,0,1-2.82,3.1A21,21,0,0,1,101,40.08a17.08,17.08,0,0,1-3.71,1.71,13.09,13.09,0,0,1-4,.63,10.45,10.45,0,0,1-1.83-.16,12,12,0,0,1-1.85-.48,9,9,0,0,1-1.72-.8,6.84,6.84,0,0,1-1.42-1.09,5.12,5.12,0,0,1-1-1.35,3.58,3.58,0,0,1-.36-1.6,2.45,2.45,0,0,1,.13-.81A.6.6,0,0,1,85.88,35.74Z"/><path class="cls-2" d="M118.38,33.87a19.62,19.62,0,0,1,.45-4.09c.3-1.42.61-2.77.94-4.07a5.57,5.57,0,0,1-1.25-.19,4.83,4.83,0,0,1-1.14-.44,2.8,2.8,0,0,1-.85-.69,1.48,1.48,0,0,1-.33-.95,1.83,1.83,0,0,1,.1-.54,2.8,2.8,0,0,1,.27-.65,1.8,1.8,0,0,1,.45-.54,1.05,1.05,0,0,1,.64-.22h3.14a.62.62,0,0,0,.61-.38,4.92,4.92,0,0,0,.25-.77c.21-.9.4-1.69.58-2.35s.33-1.23.46-1.69l.29-1.12a3.06,3.06,0,0,0,.1-.7,5.52,5.52,0,0,0,0-.58c0-.19,0-.45,0-.77v-.24c0-.12,0-.29,0-.49a6.07,6.07,0,0,1,.22-.87,2.21,2.21,0,0,1,.52-.84,1.43,1.43,0,0,1,1.1-.4,2.08,2.08,0,0,1,1.81.94,3.49,3.49,0,0,1,.42,1,4.45,4.45,0,0,1,.14,1.08,4.21,4.21,0,0,1-.12,1.05l-1.71,6.56c.84-.14,1.59-.27,2.25-.4l2-.37c.72-.14,1.34-.27,1.86-.4l1.35-.32,1-.21a3.57,3.57,0,0,1,.64-.08,5.09,5.09,0,0,1,.77.06,2.71,2.71,0,0,1,.68.2,1.32,1.32,0,0,1,.48.4,1.16,1.16,0,0,1,.18.68,2.12,2.12,0,0,1-.22,1,2.66,2.66,0,0,1-.57.75,3.06,3.06,0,0,1-.8.52,4.4,4.4,0,0,1-.89.29l-1,.21-1.32.31-1.48.35-1.5.37L127,24.7c-.51.13-1,.22-1.3.28l-.88.15a4.27,4.27,0,0,1-.55,0c-.3.89-.56,1.77-.78,2.63s-.4,1.66-.55,2.4-.26,1.41-.33,2a12.11,12.11,0,0,0-.1,1.37,5.91,5.91,0,0,0,.12,1.21,2.86,2.86,0,0,0,.39,1,1.91,1.91,0,0,0,.77.66,2.54,2.54,0,0,0,1.2.25,4.92,4.92,0,0,0,2.44-.68,11.38,11.38,0,0,0,2.28-1.72A21.7,21.7,0,0,0,131.78,32c.65-.83,1.24-1.61,1.79-2.36a.84.84,0,0,1,.73-.43,1.74,1.74,0,0,1,.34.05,1.4,1.4,0,0,1,.38.16,1,1,0,0,1,.32.31.72.72,0,0,1,.13.44,2,2,0,0,1,0,.29,13.28,13.28,0,0,1-1.16,2.91c-.53,1-1.06,2-1.61,2.94a4.83,4.83,0,0,1-.74,1,11.16,11.16,0,0,1-1,.95,13.57,13.57,0,0,1-1.13.87l-1.1.74a5.73,5.73,0,0,1-2,.77,10.39,10.39,0,0,1-2,.21,6.29,6.29,0,0,1-2.7-.55,5.75,5.75,0,0,1-2-1.5,6.73,6.73,0,0,1-1.24-2.21A8.61,8.61,0,0,1,118.38,33.87Z"/><path class="cls-2" d="M140.6,32.18a17.84,17.84,0,0,1,1.09-3,18.62,18.62,0,0,1,1.94-3.24,21.64,21.64,0,0,1,2.87-3.21,23.45,23.45,0,0,1,3.88-2.93,5.51,5.51,0,0,1,1.07-.46A5.94,5.94,0,0,1,153,19a3.19,3.19,0,0,1,2.46-1,5.06,5.06,0,0,1,3.09.93,7.24,7.24,0,0,1,2.07,2.52c.17.34.33.68.48,1a7.47,7.47,0,0,1,.38,1,9.83,9.83,0,0,1,.24,1.18,10.24,10.24,0,0,1,.1,1.43,12.93,12.93,0,0,1-.59,3.78,17.75,17.75,0,0,1-1.66,3.75,20.73,20.73,0,0,1-2.62,3.5,21.3,21.3,0,0,1-3.41,3,10.26,10.26,0,0,1-2.8,1.42,10.85,10.85,0,0,1-3.43.5,9.15,9.15,0,0,1-3.13-.48,5.72,5.72,0,0,1-2.2-1.37,5.56,5.56,0,0,1-1.32-2.13,8.34,8.34,0,0,1-.43-2.77A13.1,13.1,0,0,1,140.6,32.18Zm3.89.3a8.7,8.7,0,0,0-.2,1,7.5,7.5,0,0,0-.06.93,5.06,5.06,0,0,0,.2,1.44,2.9,2.9,0,0,0,.65,1.15,3.11,3.11,0,0,0,1.11.75,4.38,4.38,0,0,0,1.63.27,6.47,6.47,0,0,0,3.32-.9,11.34,11.34,0,0,0,2.73-2.26,15,15,0,0,0,2-2.92A13.53,13.53,0,0,0,157,29.09c.14-.55.26-1.07.36-1.55a6.7,6.7,0,0,0,.15-1.34,2.85,2.85,0,0,0-.22-1.13c-.15-.36-.34-.75-.57-1.19-.14-.26-.28-.54-.43-.83s-.26-.57-.37-.85a4.38,4.38,0,0,1-.4.57,1.88,1.88,0,0,1-.63.44,5.37,5.37,0,0,1-1.15.37,16.54,16.54,0,0,1-1.9.28,6.48,6.48,0,0,0-1.57.8,12.67,12.67,0,0,0-1.56,1.26,18.09,18.09,0,0,0-1.45,1.57A16.16,16.16,0,0,0,146,29.21a17.9,17.9,0,0,0-1,1.73A7.28,7.28,0,0,0,144.49,32.48Z"/><path class="cls-2" d="M166.22,38.74c.2-1.09.44-2.29.7-3.61s.54-2.64.82-4,.56-2.67.82-4,.49-2.49.68-3.56c0-.16,0-.3,0-.42v-.38a11.64,11.64,0,0,1,.09-1.45,11.39,11.39,0,0,1,.26-1.34,3,3,0,0,1,.57-1.21,1.43,1.43,0,0,1,1-.31,1.93,1.93,0,0,1,1.09.27,1.78,1.78,0,0,1,.65.71,3,3,0,0,1,.3,1,9.12,9.12,0,0,1,.07,1.18c0,.22,0,.46,0,.73s0,.48,0,.63c.43-.45.9-.92,1.39-1.39a12,12,0,0,1,1.57-1.29,9.36,9.36,0,0,1,1.76-.95,5.11,5.11,0,0,1,1.93-.38,4.15,4.15,0,0,1,.79.08,5.49,5.49,0,0,1,.78.18,8.58,8.58,0,0,1,1,.32,4.3,4.3,0,0,1,1,.55,5.23,5.23,0,0,1,1.3,1.46,3.5,3.5,0,0,1,.53,1.8,2.46,2.46,0,0,1-.14.76,3.34,3.34,0,0,1-.39.75,2.33,2.33,0,0,1-.57.56,1.28,1.28,0,0,1-.73.22,3,3,0,0,1-1-.19,2.87,2.87,0,0,1-1-.53,2,2,0,0,1-.34-.4,5.69,5.69,0,0,1-.33-.52c-.1-.17-.2-.33-.28-.48a1.65,1.65,0,0,0-.2-.29,1.09,1.09,0,0,0-.26,0l-.26,0a4.63,4.63,0,0,0-2.27.61,11.07,11.07,0,0,0-2,1.49,17,17,0,0,0-1.72,1.88c-.52.66-1,1.26-1.37,1.79-.31,1.26-.66,2.61-1,4s-.76,2.93-1.14,4.49v.59c0,.47,0,.94-.05,1.43a3.94,3.94,0,0,1-.28,1.29,2,2,0,0,1-.74.59,2.33,2.33,0,0,1-1.11.25,1.75,1.75,0,0,1-1.48-.65,2.46,2.46,0,0,1-.49-1.51A3,3,0,0,1,166.22,38.74Z"/><path class="cls-2" d="M185.86,32.11a2.73,2.73,0,0,1,.54-1.71,2.57,2.57,0,0,1,1.43-.94c.17-.34.44-.81.8-1.39A18.71,18.71,0,0,1,190,26.16a24,24,0,0,1,1.82-2.08,15.92,15.92,0,0,1,2.25-1.9,12.16,12.16,0,0,1,2.65-1.39,8.37,8.37,0,0,1,3-.54,7.6,7.6,0,0,1,2.36.33,4.6,4.6,0,0,1,1.67.91,3.71,3.71,0,0,1,1,1.4,4.57,4.57,0,0,1,.33,1.74,5.54,5.54,0,0,1-.21,1.53,5.2,5.2,0,0,1-1.22,2.29,9.42,9.42,0,0,1-2.1,1.73,13.7,13.7,0,0,1-2.62,1.23c-.95.32-1.89.6-2.84.82s-1.85.38-2.73.5-1.63.21-2.27.27a4.93,4.93,0,0,0-.36,1.07,5,5,0,0,0-.16,1.25,2.42,2.42,0,0,0,1.08,2.11,5.15,5.15,0,0,0,3,.75,8.59,8.59,0,0,0,2.11-.25,11.55,11.55,0,0,0,1.91-.63,17.93,17.93,0,0,0,1.7-.84c.53-.31,1-.61,1.45-.91a14.76,14.76,0,0,1,1.61-.94,3,3,0,0,1,1.34-.39c.39,0,.64.1.75.29a1.26,1.26,0,0,1,.17.62c0,.13,0,.25,0,.37a2,2,0,0,1,0,.29A3.84,3.84,0,0,1,205.1,37a3.74,3.74,0,0,1-.89,1.05,15.76,15.76,0,0,1-5,2.74,17.81,17.81,0,0,1-5.48.83c-.37,0-.81,0-1.32-.08a9.39,9.39,0,0,1-1.58-.28,7.78,7.78,0,0,1-1.62-.61,5,5,0,0,1-1.42-1,5,5,0,0,1-1-1.62,6.15,6.15,0,0,1-.39-2.32,11.57,11.57,0,0,1,.3-2.46,1,1,0,0,1-.57-.32A1.06,1.06,0,0,1,185.86,32.11Zm14.67-6.49a.63.63,0,0,0,.05-.21V25.2a1.07,1.07,0,0,0-.47-.95,2,2,0,0,0-1.13-.32,4.19,4.19,0,0,0-2,.54,9.29,9.29,0,0,0-1.88,1.35,12.7,12.7,0,0,0-1.56,1.73,12.29,12.29,0,0,0-1.05,1.68,23.77,23.77,0,0,0,3.09-.46A12.15,12.15,0,0,0,198,28a6.31,6.31,0,0,0,1.69-1.08A2.67,2.67,0,0,0,200.53,25.62Z"/></g></g></svg>